<svg xmlns="http://www.w3.org/2000/svg" height="800" width="1200" viewBox="-74.724 -44.2535 647.608 265.521"><path d="M288.466 108.612c-1.11 7.753-2.92 13.689-5.428 17.802-4.504 7.386-10.866 11.077-19.087 11.077-7.995 0-14.315-3.771-18.959-11.311-4.645-7.539-6.968-19.938-6.968-37.192 0-17.41 2.336-29.887 7.01-37.428 4.672-7.539 10.866-11.31 18.581-11.31 8.051 0 14.427 3.713 19.129 11.135 2.762 4.361 4.705 10.229 5.845 17.581h38.528c-2.005-18.841-7.259-34.116-15.785-45.796C300.183 7.896 284.305.259 263.699.259c-20.101 0-35.782 7.774-47.042 23.319-11.262 15.547-16.891 37.271-16.891 65.176 0 19.978 2.843 36.61 8.53 49.902 5.686 13.291 13.104 23.009 22.254 29.146 9.149 6.144 20.706 9.212 34.669 9.212 13.737 0 25.209-3.557 34.415-10.669 9.205-7.11 16.244-17.061 21.114-29.848 3.016-7.917 5.095-17.215 6.243-27.888zM0 0h35.176L81.08 97.704V0h35.509v176.601H81.08L35.426 79.635v96.966H0zm143.116 0h37.754v176.601h-37.754zm197.168 0h100.955v37.705h-63.201v28.067h58.627v36.02h-58.627v34.813h65.03v39.994H340.284z"/><path fill="#0067AD" d="M102.809 67.669h40.121v40.121h-40.121zm78.193 0h40.121v40.121h-40.121zm145.376 0h40.121v40.121h-40.121z"/><path d="M466.357 34.082V12.607h9.126c2.295 0 3.962.193 5.003.579 1.039.387 1.872 1.072 2.497 2.059.625.985.938 2.113.938 3.384 0 1.611-.474 2.942-1.421 3.992-.947 1.05-2.363 1.711-4.248 1.984.938.547 1.711 1.147 2.322 1.803.608.653 1.433 1.815 2.468 3.485l2.622 4.189h-5.186l-3.136-4.673c-1.112-1.67-1.875-2.723-2.285-3.157-.409-.436-.845-.732-1.304-.895-.459-.161-1.187-.241-2.183-.241h-.879v8.965zm4.336-12.393h3.208c2.079 0 3.379-.088 3.896-.264a2.339 2.339 0 001.216-.908c.293-.429.439-.967.439-1.61 0-.724-.193-1.307-.578-1.75-.387-.444-.931-.726-1.634-.843-.353-.049-1.406-.072-3.164-.072h-3.384z"/><ellipse ry="20.375" rx="20.417" cy="23.374" cx="475.243" stroke-width="5" stroke="#000" fill="none"/></svg>